Coordinates
version=1
nRows=14
nColumns=36
inDegrees=yes

Units are S.I. units (second, meters, Newtons, ...)
If the header above contains a line with 'inDegrees', this indicates whether rotational values are in degrees (yes) or radians (no).

endheader
time	pelvis_tilt	pelvis_list	pelvis_rotation	pelvis_tx	pelvis_ty	pelvis_tz	hip_flexion_r	hip_adduction_r	hip_rotation_r	knee_angle_r	knee_angle_r_beta	ankle_angle_r	subtalar_angle_r	mtp_angle_r	hip_flexion_l	hip_adduction_l	hip_rotation_l	knee_angle_l	knee_angle_l_beta	ankle_angle_l	subtalar_angle_l	mtp_angle_l	lumbar_extension	lumbar_bending	lumbar_rotation	arm_flex_r	arm_add_r	arm_rot_r	elbow_flex_r	pro_sup_r	arm_flex_l	arm_add_l	arm_rot_l	elbow_flex_l	pro_sup_l
      0.00000000	     -3.21979940	      3.67498219	    -55.64845409	      1.27901263	      0.97838909	     -0.19999352	     20.60073870	     -2.39252004	     -7.08821867	      3.17553657	      0.05542357	    -33.20471378	    -33.13532000	     -7.29872860	     13.83871331	     -5.67332951	      0.59570208	      0.99912542	      0.01743803	    -25.26601340	     -5.88904113	     -7.29872860	     -4.48500741	      0.58492345	     19.39832262	    -20.26388497	    -49.22964622	     19.71038475	    126.56263047	     74.00400289	    -46.17215020	     -4.45022135	     -8.91739119	    119.53649161	     90.00281844
      0.01666670	     -7.37046751	      9.22316340	    -53.66314345	      1.27363961	      0.97218773	     -0.20014424	     30.99932409	     -2.80650882	    -10.05267965	      8.54947276	      0.14921645	    -34.04383110	    -33.56659135	     -7.32188227	     24.18509159	     -5.84062176	      1.43960908	      3.68752340	      0.06435942	    -30.38229559	      1.51031162	     -7.32188227	      4.59021499	      0.43531791	     19.85374390	    -26.00808854	    -45.09385861	     14.53617150	    126.55277597	     76.28020105	    -45.32454227	     -2.02743089	    -14.91497959	    122.63434194	     91.23960279
      0.03333330	     -9.78009228	     12.84555129	    -52.34500297	      1.27949501	      0.96880194	     -0.19790768	     34.53482911	     -2.81234726	    -12.10780775	      6.04144227	      0.10544306	    -37.50188468	    -33.92790979	     -7.38352269	     29.31117372	     -5.37728543	      1.87997846	      2.83015881	      0.04939559	    -37.78346176	      4.51051041	     -7.38352269	     11.70532665	      0.05806684	     21.71818837	    -31.49084340	    -40.97152273	      9.31208726	    125.49248658	     86.02376462	    -44.41238875	     -1.18777668	    -17.84900632	    124.48290431	     92.53639041
      0.05000000	    -11.44163097	     15.26726946	    -51.25954805	      1.27805837	      0.96465825	     -0.19773764	     37.75374543	     -3.09606884	    -16.94042642	      5.89720784	      0.10292569	    -39.60973011	    -34.14284783	     -7.43313333	     32.82449396	     -5.03127726	      3.09279335	      2.23446535	      0.03899878	    -43.88695071	      6.30195632	     -7.43313333	     16.80924165	     -0.60563334	     22.13718742	    -33.31420137	    -38.61068831	      7.95961087	    123.43879328	     85.30080736	    -44.06070791	      0.03185238	    -20.67046487	    125.49607044	     89.58261533
      0.06666670	    -13.23485237	     16.65762266	    -50.10600656	      1.27248751	      0.96123780	     -0.19536398	     39.96825736	     -2.68711183	    -21.47106264	      5.77875953	      0.10085838	    -40.79046500	    -34.33060429	     -7.49228431	     35.86599001	     -5.55217824	      3.58827372	      2.54656891	      0.04444601	    -48.25820450	      9.95039913	     -7.49228431	     20.53099554	     -0.89304304	     21.94082373	    -33.86428224	    -37.05660820	      7.65926348	    121.28824811	     89.46104208	    -43.45529254	      0.80877454	    -23.00896818	    126.89927846	     90.81026900
      0.08333330	    -13.70698083	     16.23500592	    -49.39751412	      1.27336119	      0.96533018	     -0.19588025	     39.70598419	     -2.20773895	    -25.89287815	      5.42747743	      0.09472735	    -40.18010964	    -34.42536563	     -7.49248285	     36.28043054	     -6.36149218	      4.96240659	      3.00499342	      0.05244703	    -49.27142924	     13.31641857	     -7.49248285	     21.23531563	     -0.63098551	     21.80639806	    -34.05352592	    -36.13910751	      6.93332394	    120.24364137	     89.57900788	    -42.19574437	      1.69737336	    -24.49053889	    127.99993521	     90.59966121
      0.10000000	    -13.41811184	     14.11167170	    -48.73461418	      1.26765828	      0.96713898	     -0.19378105	     37.29089677	     -0.96731415	    -29.03539017	      4.53376803	      0.07912918	    -39.52503395	    -34.46416552	     -7.49904581	     35.14177047	     -7.54443470	      6.14737353	      3.77832850	      0.06594427	    -49.49280739	     16.35480591	     -7.49904581	     19.03034831	      0.15680007	     21.10887452	    -34.13422400	    -35.65653942	      5.58646258	    120.56691678	     92.23880341	    -40.25976020	      3.49119740	    -27.95673542	    129.03366229	     90.14328070
      0.11666670	    -12.00126440	     11.74861846	    -48.84438608	      1.26731112	      0.96912344	     -0.19368037	     33.99527308	     -0.21416144	    -31.12355354	      3.45024637	      0.06021816	    -39.08440054	    -34.45775371	     -7.49957733	     32.25884617	     -8.00897699	      7.35817316	      3.80265272	      0.06636881	    -49.60829783	     19.02413690	     -7.49957733	     15.60993551	      0.38682916	     21.15787445	    -34.14035343	    -35.62324204	      4.57793959	    121.89423782	     93.96202201	    -38.15068529	      4.41347972	    -29.67093976	    131.59760720	     90.20152862
      0.13333330	    -13.54566989	     12.18256593	    -48.17640759	      1.26158220	      0.96285395	     -0.19063349	     35.29684197	      0.73555368	    -32.78258213	      3.09198872	      0.05396538	    -38.63422642	    -34.46555975	     -7.49968831	     34.41317386	     -8.86590606	      8.15258925	      4.61926000	      0.08062130	    -49.66960151	     20.76993246	     -7.49968831	     17.38274041	      0.77682908	     20.77293328	    -34.69835421	    -35.45746205	      4.70927423	    122.97410759	     90.90605207	    -37.43265756	      4.75623623	    -31.28961964	    134.97572332	     87.09631285
      0.15000000	    -11.96554392	     10.12240962	    -48.42986241	      1.26143204	      0.96663719	     -0.19126534	     32.45574620	      1.14151574	    -33.42670776	      2.62050523	      0.04573644	    -37.92139841	    -34.43986243	     -7.49999409	     31.61733408	     -9.15057738	      8.73078807	      4.44780312	      0.07762881	    -49.69406916	     21.98371921	     -7.49999409	     13.57360379	      0.64241746	     20.94248133	    -34.18855881	    -35.18155525	      3.32460489	    123.98890143	     96.90460551	    -35.79381440	      5.43768179	    -32.88781426	    135.98327817	     90.09836811
      0.16666670	    -11.74654372	     10.02062672	    -48.42972402	      1.26262029	      0.96145798	     -0.18509212	     32.00947749	      1.17798420	    -34.18669585	      2.38679163	      0.04165737	    -37.40284729	    -34.42739499	     -7.49999475	     31.20180054	     -9.08489813	      9.34059534	      4.34458131	      0.07582725	    -49.71170737	     22.54108865	     -7.49999475	     13.68467095	      0.40872647	     20.90654586	    -34.11496635	    -35.02181687	      2.90010847	    124.73075947	     95.59652482	    -35.16137222	      5.56403742	    -34.53017082	    137.71959905	     89.06293061
      0.18333330	    -11.79711202	      9.82556073	    -48.59626042	      1.26036983	      0.95816497	     -0.18595555	     32.11535312	      1.35770456	    -34.71089181	      2.83860140	      0.04954294	    -36.86071155	    -34.44727226	     -7.50000038	     31.13295505	     -9.35541470	      9.74857028	      4.26623329	      0.07445982	    -49.72273976	     23.70926631	     -7.50000038	     13.74046229	      0.66695726	     20.97519268	    -34.09328464	    -35.23903807	      2.57147478	    125.22333121	     98.38065695	    -34.55464463	      5.89291519	    -36.04294445	    138.84152373	     89.67459971
      0.20000000	    -14.34366917	     11.71605324	    -48.20299466	      1.25419026	      0.95042477	     -0.18330036	     36.17486076	      1.74201812	    -35.19149146	      4.70590055	      0.08213346	    -35.28709216	    -34.48439509	     -7.50000026	     35.43912845	     -9.96508176	     11.16586548	      5.69495229	      0.09939567	    -49.72080802	     24.02815473	     -7.50000026	     17.94310703	      1.35793387	     20.61727750	    -34.65811025	    -35.28970527	      2.70796735	    125.65081406	     98.91276741	    -35.05741176	      5.80378267	    -37.66642736	    139.61818946	     90.33875838
      0.21666670	    -14.04302711	     10.88909397	    -48.43095028	      1.25198872	      0.95427437	     -0.18446377	     35.39359445	      2.25504995	    -35.50562960	      4.89404008	      0.08541711	    -34.76494102	    -34.47367791	     -7.49999981	     34.58527440	    -10.50814846	     11.94484808	      5.39313195	      0.09412791	    -49.73235582	     24.50755845	     -7.49999981	     16.59653784	      1.54307288	     20.60695924	    -34.25240527	    -35.36285499	      2.33016359	    126.06351858	     99.83996255	    -34.56293572	      5.90006807	    -38.39981697	    139.55745060	     90.13986926
